<svg id="Camada_1" data-name="Camada 1" xmlns="http://www.w3.org/2000/svg" viewBox="0 0 144.82 41.53"><defs><style>.cls-1,.cls-2{fill:#3c60a7;}.cls-2{fill-rule:evenodd;}</style></defs><polygon class="cls-1" points="67.08 41.23 62.25 41.23 67.14 19.73 80 19.73 79.15 23.47 71.12 23.47 69.87 29.01 77.35 29.01 76.46 32.73 68.99 32.73 67.08 41.23"/><polygon class="cls-1" points="77.49 41.23 82.43 19.73 87.25 19.73 82.31 41.23 77.49 41.23"/><polygon class="cls-1" points="98.88 41.23 85.97 41.23 90.85 19.73 103.78 19.73 102.93 23.47 94.83 23.47 93.78 28.19 101.32 28.19 100.45 31.92 92.91 31.92 91.64 37.47 99.74 37.47 98.88 41.23"/><path class="cls-1" d="M1001.85,554.73l8.7-16.07h6.69l-4.88,21.5h-4.43l2.29-10.18q.84-3.63,1.66-6.48h-.08l-9,16.66h-4.44l-1-16.66h-.06q-.18,1.29-.6,3.39t-3,13.27h-4.34l4.88-21.5h6.39l1.07,16.07Z" transform="translate(-887.87 -518.93)"/><path class="cls-1" d="M1030.09,553.81a5.8,5.8,0,0,1-2.34,4.86,10.19,10.19,0,0,1-6.33,1.78,10.59,10.59,0,0,1-5.63-1.32v-4a12.34,12.34,0,0,0,5.66,1.59,5.13,5.13,0,0,0,2.76-.63,1.92,1.92,0,0,0,1-1.71,2.75,2.75,0,0,0-.21-1.11,3.28,3.28,0,0,0-.61-.89,17.05,17.05,0,0,0-2-1.5,10.15,10.15,0,0,1-3.07-2.88,5.73,5.73,0,0,1-.88-3.08,6,6,0,0,1,1-3.38,6.45,6.45,0,0,1,2.79-2.33,9.9,9.9,0,0,1,4.16-.83,13.53,13.53,0,0,1,6.27,1.46l-1.72,3.42a11.41,11.41,0,0,0-4.55-1.08,3.38,3.38,0,0,0-2.15.66,2.11,2.11,0,0,0-.84,1.75,2.5,2.5,0,0,0,.52,1.56,9.31,9.31,0,0,0,2.34,1.77,9.18,9.18,0,0,1,2.87,2.6,5.85,5.85,0,0,1,.94,3.32" transform="translate(-887.87 -518.93)"/><polygon class="cls-2" points="55.54 0 0 0 0 1.69 55.54 1.69 55.54 0 55.54 0"/><polygon class="cls-2" points="55.54 9.68 0 9.68 0 11.36 55.54 11.36 55.54 9.68 55.54 9.68"/><polygon class="cls-2" points="55.54 19.64 0 19.64 0 21.33 55.54 21.33 55.54 19.64 55.54 19.64"/><polygon class="cls-2" points="55.54 29.62 0 29.62 0 31.3 55.54 31.3 55.54 29.62 55.54 29.62"/><polygon class="cls-2" points="55.54 38.94 0 38.94 0 40.63 55.54 40.63 55.54 38.94 55.54 38.94"/><path class="cls-1" d="M907.8,525.41a2,2,0,0,1-.86,1.33,3.26,3.26,0,0,1-1.83.45,2.56,2.56,0,0,1-2-.64,2.12,2.12,0,0,1-.4-1.88,2.82,2.82,0,0,1,1-1.87,3.53,3.53,0,0,1,2.22-.64,2.54,2.54,0,0,1,1.59.41,1.39,1.39,0,0,1,.44,1.26h-1.39a.63.63,0,0,0-.23-.52,1.11,1.11,0,0,0-.66-.17,1.44,1.44,0,0,0-1.06.37,2,2,0,0,0-.52,1.14,1.66,1.66,0,0,0,.13,1.16,1,1,0,0,0,.88.38,1.44,1.44,0,0,0,.8-.19,1,1,0,0,0,.42-.59Zm.52,1.7.79-4.89h1.4l-.79,4.89Zm2.52,0,.8-4.89h4.16l-.17,1h-2.81l-.14.85h2.68l-.17,1h-2.67l-.16.95h2.89l-.17,1.05Zm5,0,.79-4.89h2.12l.91,3.66,2.16-3.66h1.9l-.79,4.89h-1.18l.64-3.91-2.27,3.91h-1.47l-1-3.91-.64,3.91Zm8.22-1.63h1.38v0a.5.5,0,0,0,.16.53,1.09,1.09,0,0,0,.71.17,1.56,1.56,0,0,0,.68-.12.51.51,0,0,0,.28-.39c0-.24-.26-.43-.92-.55l-.31-.06a2.83,2.83,0,0,1-1.32-.51.93.93,0,0,1-.26-.91,1.57,1.57,0,0,1,.77-1.14,3.36,3.36,0,0,1,1.77-.4,2.46,2.46,0,0,1,1.51.36,1.14,1.14,0,0,1,.37,1.11h-1.31a.37.37,0,0,0-.15-.4,1,1,0,0,0-.61-.14,1.48,1.48,0,0,0-.65.12.48.48,0,0,0-.28.33c0,.24.27.41.9.54l.26.05h.06a2.87,2.87,0,0,1,1.34.51.88.88,0,0,1,.24.43,1.48,1.48,0,0,1,0,.56,1.63,1.63,0,0,1-.8,1.16,3.46,3.46,0,0,1-1.82.41,2.63,2.63,0,0,1-1.65-.4,1.18,1.18,0,0,1-.38-1.21l0-.1Z" transform="translate(-887.87 -518.93)"/><path class="cls-1" d="M906.89,535.2h1.39v0a.57.57,0,0,0,.17.54,1.23,1.23,0,0,0,.72.17,1.52,1.52,0,0,0,.68-.13.47.47,0,0,0,.27-.38c0-.25-.29-.44-.94-.56l-.31,0a3,3,0,0,1-1.34-.52,1,1,0,0,1-.3-.9,1.52,1.52,0,0,1,.74-1.15,3.36,3.36,0,0,1,1.75-.4,2.53,2.53,0,0,1,1.53.36,1.2,1.2,0,0,1,.41,1.12h-1.32v0a.37.37,0,0,0-.16-.4,1.09,1.09,0,0,0-.62-.14,1.43,1.43,0,0,0-.64.12.41.41,0,0,0-.26.34c0,.23.27.41.91.53l.26.05h.06a2.92,2.92,0,0,1,1.36.51.89.89,0,0,1,.25.43,1.47,1.47,0,0,1,0,.56,1.59,1.59,0,0,1-.76,1.17,3.49,3.49,0,0,1-1.81.41,2.77,2.77,0,0,1-1.66-.4,1.23,1.23,0,0,1-.42-1.22v-.1Zm5.28,1.63.63-4.89H917l-.13,1H914l-.11.85h2.67l-.13,1h-2.67l-.12.94h2.88l-.13,1.05Zm5-1.63h1.38v0a.55.55,0,0,0,.17.54,1.17,1.17,0,0,0,.71.17,1.49,1.49,0,0,0,.68-.13.47.47,0,0,0,.27-.38c0-.25-.28-.44-.94-.56l-.31,0a3,3,0,0,1-1.34-.52,1,1,0,0,1-.29-.9,1.5,1.5,0,0,1,.74-1.15,3.33,3.33,0,0,1,1.75-.4,2.52,2.52,0,0,1,1.52.36,1.2,1.2,0,0,1,.41,1.12h-1.31v0a.39.39,0,0,0-.16-.4,1.11,1.11,0,0,0-.62-.14,1.48,1.48,0,0,0-.65.12.45.45,0,0,0-.26.34c0,.23.28.41.91.53l.27.05h0a3,3,0,0,1,1.37.51,1.09,1.09,0,0,1,.25.43,1.3,1.3,0,0,1,0,.56,1.56,1.56,0,0,1-.76,1.17,3.43,3.43,0,0,1-1.8.41,2.81,2.81,0,0,1-1.67-.4,1.23,1.23,0,0,1-.42-1.22l0-.1Zm5.29,1.63.63-4.89h1.4l-.62,4.89Z" transform="translate(-887.87 -518.93)"/><path class="cls-1" d="M903.29,544.93h1.39v0a.54.54,0,0,0,.16.54,1.17,1.17,0,0,0,.71.17,1.44,1.44,0,0,0,.69-.13.47.47,0,0,0,.27-.38c0-.25-.27-.43-.93-.55l-.31-.06a2.86,2.86,0,0,1-1.33-.52.94.94,0,0,1-.27-.9,1.54,1.54,0,0,1,.76-1.15,3.38,3.38,0,0,1,1.76-.39,2.6,2.6,0,0,1,1.52.35,1.19,1.19,0,0,1,.38,1.12h-1.31a.39.39,0,0,0-.16-.41,1.05,1.05,0,0,0-.61-.14,1.48,1.48,0,0,0-.65.12.45.45,0,0,0-.27.34c0,.23.27.41.91.53l.26.06h0a2.84,2.84,0,0,1,1.36.52.91.91,0,0,1,.24.43,1.25,1.25,0,0,1,0,.55,1.55,1.55,0,0,1-.78,1.17,3.49,3.49,0,0,1-1.81.41,2.68,2.68,0,0,1-1.66-.4,1.16,1.16,0,0,1-.39-1.21v-.1Zm5.25,1.63.72-4.89h4.17l-.16,1h-2.81l-.13.85H913l-.15,1h-2.68l-.14,1h2.89l-.15,1Zm5,0,.73-4.89h1.82l1.71,3.51.52-3.51h1.25l-.73,4.89H917l-1.71-3.51-.52,3.51Zm8.31-1.94h1.76l-.56-1.88-1.2,1.88Zm-2.67,1.94,3.27-4.89h1.65l1.68,4.89H924.2l-.28-1h-2.67l-.6,1Zm7,0,.73-4.89h1.4l-.73,4.89Z" transform="translate(-887.87 -518.93)"/><path class="cls-1" d="M909.89,556.28l.63-4.89h1.4l-.63,4.89Zm2.52,0,.63-4.89h4.17l-.14,1h-2.81l-.11.85h2.68l-.13,1H914l-.12,1h2.89l-.14,1Zm5,0,.63-4.89h1.39l-.5,3.82h2.57l-.14,1.07Z" transform="translate(-887.87 -518.93)"/><path class="cls-1" d="M962.8,531.32a4.61,4.61,0,0,1-1.6,3.74,6.93,6.93,0,0,1-4.51,1.33,12.09,12.09,0,0,1-2.13-.17,6.72,6.72,0,0,1-1.73-.55v-1.94a8.31,8.31,0,0,0,3.88,1,4.6,4.6,0,0,0,2.93-.86,2.88,2.88,0,0,0,1.08-2.37,2.3,2.3,0,0,0-.6-1.57,9,9,0,0,0-2.23-1.6,7.07,7.07,0,0,1-2.38-1.94,3.91,3.91,0,0,1-.67-2.29,4.43,4.43,0,0,1,1.5-3.47,5.72,5.72,0,0,1,4-1.34,10,10,0,0,1,2.1.21,10.3,10.3,0,0,1,2.06.74l-.75,1.72a7,7,0,0,0-1.69-.69,6.5,6.5,0,0,0-1.72-.25,3.65,3.65,0,0,0-2.46.79,2.69,2.69,0,0,0-.93,2.15,2.64,2.64,0,0,0,.2,1.06,2.54,2.54,0,0,0,.61.82,10.49,10.49,0,0,0,1.62,1.09,14.25,14.25,0,0,1,2.27,1.57,4.14,4.14,0,0,1,.89,1.26A4,4,0,0,1,962.8,531.32Z" transform="translate(-887.87 -518.93)"/><path class="cls-1" d="M966.7,536.16h-1.92l2.67-12.5h1.92ZM968,520.47a1.52,1.52,0,0,1,.36-1.05,1.21,1.21,0,0,1,.95-.4.89.89,0,0,1,1,1,1.58,1.58,0,0,1-.38,1.06,1.19,1.19,0,0,1-.89.43,1,1,0,0,1-.75-.28A1,1,0,0,1,968,520.47Z" transform="translate(-887.87 -518.93)"/><path class="cls-1" d="M978.42,532.61a3.35,3.35,0,0,1-1.26,2.78,5.62,5.62,0,0,1-3.55,1,7.62,7.62,0,0,1-3.48-.79v-1.8a7.32,7.32,0,0,0,1.72.74,6.53,6.53,0,0,0,1.71.26,3.49,3.49,0,0,0,2.17-.57,1.8,1.8,0,0,0,.73-1.46,1.55,1.55,0,0,0-.4-1.09,7.8,7.8,0,0,0-1.72-1.22,7,7,0,0,1-2.1-1.63,3.05,3.05,0,0,1-.62-1.9,3.13,3.13,0,0,1,1.16-2.53,4.5,4.5,0,0,1,3-1,8.71,8.71,0,0,1,3.76.85l-.61,1.56-.64-.29a6.49,6.49,0,0,0-2.51-.49,2.58,2.58,0,0,0-1.67.5,1.59,1.59,0,0,0-.6,1.28,1.6,1.6,0,0,0,.4,1.1,7.41,7.41,0,0,0,1.67,1.17,9.94,9.94,0,0,1,1.75,1.17,3.41,3.41,0,0,1,.8,1.06A3.07,3.07,0,0,1,978.42,532.61Z" transform="translate(-887.87 -518.93)"/><path class="cls-1" d="M984.54,534.82a6.37,6.37,0,0,0,1.64-.29V536a5.9,5.9,0,0,1-.95.27,4.72,4.72,0,0,1-.92.12,3.18,3.18,0,0,1-2.18-.68,2.62,2.62,0,0,1-.76-2,8.1,8.1,0,0,1,.21-1.71l1.45-6.86h-2l.16-.83,2.11-.89,1.43-2.6h1.12l-.63,2.87h3.12l-.29,1.45H985L983.49,532a8.59,8.59,0,0,0-.2,1.5,1.35,1.35,0,0,0,.33,1A1.21,1.21,0,0,0,984.54,534.82Z" transform="translate(-887.87 -518.93)"/><path class="cls-1" d="M993.22,536.39a4.37,4.37,0,0,1-3.3-1.25,4.78,4.78,0,0,1-1.19-3.44,10.19,10.19,0,0,1,.85-4.11,7.51,7.51,0,0,1,2.25-3.06,4.89,4.89,0,0,1,3.09-1.1,3.88,3.88,0,0,1,2.62.76,2.64,2.64,0,0,1,.88,2.12,3.62,3.62,0,0,1-1.89,3.22,10.36,10.36,0,0,1-5.42,1.17h-.38l0,.91a3.52,3.52,0,0,0,.7,2.33,2.67,2.67,0,0,0,2.17.84,5.56,5.56,0,0,0,1.48-.21,11.54,11.54,0,0,0,1.89-.75v1.66a10.67,10.67,0,0,1-1.9.71A7.78,7.78,0,0,1,993.22,536.39Zm1.59-11.33a3.06,3.06,0,0,0-2.21,1.07,7,7,0,0,0-1.58,3h.14a9.31,9.31,0,0,0,4-.68,2.13,2.13,0,0,0,1.39-2,1.33,1.33,0,0,0-.42-1A1.85,1.85,0,0,0,994.81,525.06Z" transform="translate(-887.87 -518.93)"/><path class="cls-1" d="M1007.06,536.16l1.69-7.89a9.27,9.27,0,0,0,.21-1.54,1.94,1.94,0,0,0-.36-1.25,1.47,1.47,0,0,0-1.21-.44,3.09,3.09,0,0,0-1.86.68,5.93,5.93,0,0,0-1.6,2,11.31,11.31,0,0,0-1.06,3.06l-1.15,5.42H999.8l2.67-12.5h1.58l-.25,2.31h.12a7.35,7.35,0,0,1,2-2,4,4,0,0,1,2-.59,2.59,2.59,0,0,1,2,.74,3.34,3.34,0,0,1,.82,2.07h.1a7.38,7.38,0,0,1,2.08-2.12,4.19,4.19,0,0,1,2.24-.69,3.07,3.07,0,0,1,2.24.78,3,3,0,0,1,.79,2.25,10.53,10.53,0,0,1-.25,2l-1.64,7.67h-1.94l1.69-7.89a10.71,10.71,0,0,0,.23-1.67,1.61,1.61,0,0,0-.4-1.13,1.58,1.58,0,0,0-1.24-.43,3.07,3.07,0,0,0-1.82.66,5.74,5.74,0,0,0-1.58,1.88,10.15,10.15,0,0,0-1,2.88l-1.22,5.7Z" transform="translate(-887.87 -518.93)"/><path class="cls-1" d="M1026.78,523.43a3.2,3.2,0,0,1,1.87.57,3.63,3.63,0,0,1,1.28,1.62h.12l.76-2h1.45l-2.65,12.5h-1.52l.3-2.39h-.1c-1.36,1.74-2.79,2.62-4.29,2.62a3,3,0,0,1-2.49-1.13,4.86,4.86,0,0,1-.9-3.09,11.8,11.8,0,0,1,.81-4.41,7.63,7.63,0,0,1,2.23-3.18A4.92,4.92,0,0,1,1026.78,523.43Zm-2.17,11.37a3.21,3.21,0,0,0,2.2-1,7.93,7.93,0,0,0,1.78-2.75,8.94,8.94,0,0,0,.69-3.4,2.7,2.7,0,0,0-.64-1.87A2.19,2.19,0,0,0,1027,525a3.16,3.16,0,0,0-2.21,1,6.61,6.61,0,0,0-1.6,2.66,10.58,10.58,0,0,0-.58,3.53,3,3,0,0,0,.54,1.95A1.83,1.83,0,0,0,1024.61,534.8Z" transform="translate(-887.87 -518.93)"/></svg>