<svg id="Camada_1" data-name="Camada 1" xmlns="http://www.w3.org/2000/svg" viewBox="0 0 134.81 20.56"><defs><style>.cls-1{fill:#fff;}</style></defs><path class="cls-1" d="M898.45,534.72a1.67,1.67,0,0,0-.62,1.35,1.52,1.52,0,0,0,.76,1.33,14.25,14.25,0,0,0,3.48,1.16,9.72,9.72,0,0,1,4.23,2,5,5,0,0,1,1.51,3.92,5.18,5.18,0,0,1-1.93,4.18,7.77,7.77,0,0,1-5.09,1.6,11.75,11.75,0,0,1-8.19-3.37l2.55-3.13q3.09,2.72,5.73,2.72a3,3,0,0,0,1.85-.51,1.66,1.66,0,0,0,.67-1.37,1.59,1.59,0,0,0-.72-1.37,9.19,9.19,0,0,0-2.82-1,12.24,12.24,0,0,1-4.89-2.07,4.89,4.89,0,0,1-1.55-4,5,5,0,0,1,2-4.21,7.88,7.88,0,0,1,4.89-1.48,11.75,11.75,0,0,1,3.84.66,10.34,10.34,0,0,1,3.34,1.86l-2.16,3.13a8.43,8.43,0,0,0-5.15-1.89A2.62,2.62,0,0,0,898.45,534.72Z" transform="translate(-892.6 -529.72)"/><path class="cls-1" d="M925.27,530.9v3.81h-9.54v3.95h8.58v3.64h-8.58v4h9.84v3.78H911.46V530.9Z" transform="translate(-892.6 -529.72)"/><path class="cls-1" d="M933.86,534.72a1.66,1.66,0,0,0-.61,1.35,1.53,1.53,0,0,0,.75,1.33,14.25,14.25,0,0,0,3.48,1.16,9.82,9.82,0,0,1,4.24,2,5,5,0,0,1,1.5,3.92,5.18,5.18,0,0,1-1.93,4.18,7.74,7.74,0,0,1-5.08,1.6,11.75,11.75,0,0,1-8.2-3.37l2.55-3.13q3.11,2.72,5.73,2.72a3,3,0,0,0,1.85-.51,1.63,1.63,0,0,0,.67-1.37,1.6,1.6,0,0,0-.71-1.37,9.41,9.41,0,0,0-2.82-1,12.29,12.29,0,0,1-4.9-2.07,4.89,4.89,0,0,1-1.55-4,5,5,0,0,1,2-4.21,7.89,7.89,0,0,1,4.9-1.48,11.65,11.65,0,0,1,3.83.66,10.39,10.39,0,0,1,3.35,1.86l-2.17,3.13a8.43,8.43,0,0,0-5.15-1.89A2.66,2.66,0,0,0,933.86,534.72Z" transform="translate(-892.6 -529.72)"/><path class="cls-1" d="M946.87,530.9h4.28v19.16h-4.28Z" transform="translate(-892.6 -529.72)"/><path class="cls-1" d="M976.25,530.9v3.76h-8.88v4.13h8.45v3.76h-8.45v7.51H963.1V530.9Z" transform="translate(-892.6 -529.72)"/><path class="cls-1" d="M983.57,550.06h-4.11V529.72h4.11Z" transform="translate(-892.6 -529.72)"/><path class="cls-1" d="M1002.21,542.69a7.32,7.32,0,0,1-2.22,5.4,8.19,8.19,0,0,1-11.15,0,7.68,7.68,0,0,1,0-10.82,8.16,8.16,0,0,1,11.15,0A7.35,7.35,0,0,1,1002.21,542.69Zm-11.46,0a4.25,4.25,0,0,0,1,2.94,3.6,3.6,0,0,0,5.26,0,4.74,4.74,0,0,0,0-5.9,3.56,3.56,0,0,0-5.26,0A4.28,4.28,0,0,0,990.75,542.69Z" transform="translate(-892.6 -529.72)"/><path class="cls-1" d="M1012.66,550.06h-4.25l-5-14.75h4.25l2.88,8.91,2.88-8.91h4l2.88,8.91,2.88-8.91h4.27l-5,14.75h-4.28l-2.71-8Z" transform="translate(-892.6 -529.72)"/></svg>