<svg id="Camada_1" data-name="Camada 1" xmlns="http://www.w3.org/2000/svg" viewBox="0 0 50.34 46.7"><defs><style>.cls-1{fill:#fff;}</style></defs><path class="cls-1" d="M974.46,524.31h-.94c-.14-6.29-5.34-8-8.11-8-6.09,0-7.83,5.07-7.93,8h-1.11a.93.93,0,1,0,0,1.86h14.56V528c0,2.75-.66,4.8-2,6.08a5.22,5.22,0,0,1-3.46,1.43,4.68,4.68,0,0,1-3.59-1.4c-2-2.14-1.87-6-1.86-6.06a.93.93,0,0,0-1.86-.09c0,.19-.21,4.7,2.37,7.42a6.5,6.5,0,0,0,4.9,2h.09a7.06,7.06,0,0,0,4.68-1.93c1.7-1.64,2.57-4.14,2.57-7.43v-1.84h1.67a.93.93,0,1,0,0-1.86Zm-2.8,0H968v-5.58A5.67,5.67,0,0,1,971.66,524.31Zm-6.25-6.12c.06,0,.33,0,.75.06v6.06h-1.24v-3.39a.93.93,0,1,0-1.86,0v3.39h-3.72C959.42,523.1,960.06,518.19,965.41,518.19Z" transform="translate(-935.09 -516.34)"/><path class="cls-1" d="M951.05,547.09a.93.93,0,0,0-1.3-1.33l-4.68,4.55-1.78-1.82a.93.93,0,0,0-1.33,1.3l2.44,2.48a.9.9,0,0,0,.66.28,1,1,0,0,0,.65-.26Z" transform="translate(-935.09 -516.34)"/><path class="cls-1" d="M953.62,543.14a.93.93,0,0,0-.37-.74.94.94,0,0,0-.83-.14,5.89,5.89,0,0,1-5.5-1.24.94.94,0,0,0-1.24,0,6.29,6.29,0,0,1-5.47,1.27.94.94,0,0,0-.81.15.91.91,0,0,0-.37.74v3.28a.93.93,0,1,0,1.85,0v-2.19a8.16,8.16,0,0,0,5.39-1.36,7.77,7.77,0,0,0,5.5,1.42v2.82c0,.23.35,5.72-6,9.92a.93.93,0,0,0,.52,1.7,1,1,0,0,0,.51-.15c7-4.69,6.82-10.94,6.78-11.58Z" transform="translate(-935.09 -516.34)"/><path class="cls-1" d="M957.56,547.44V536.63a1,1,0,0,0-.61-.87.93.93,0,0,0-1,.28,5.58,5.58,0,0,1-4.16,2.33c-2.61,0-4.7-2.3-4.73-2.35a1,1,0,0,0-.69-.31.92.92,0,0,0-.69.3c-1.55,1.68-3.13,2.49-4.7,2.42a6.43,6.43,0,0,1-4.19-2.35.93.93,0,0,0-1.67.55V547.5c0,10.26,10.4,15.25,10.85,15.45a.86.86,0,0,0,.39.09,1,1,0,0,0,.38-.08C957.6,558,957.57,548.12,957.56,547.44Zm-11.21,13.64c-1.79-1-9.4-5.52-9.4-13.58v-8.71a7.2,7.2,0,0,0,3.89,1.49,7.44,7.44,0,0,0,5.5-2.34,8.5,8.5,0,0,0,5.37,2.29h0a6.54,6.54,0,0,0,3.94-1.42v8.69C955.72,547.87,956,556.49,946.35,561.08Z" transform="translate(-935.09 -516.34)"/><path class="cls-1" d="M985.43,555.29l-1-8a7.25,7.25,0,0,0-2.69-4.57,9.45,9.45,0,0,0-4.54-2l-5.25-.84a.93.93,0,0,0-.44,0l-6,2-4-1.33v2l3.07,1v3a.93.93,0,0,0,1.86,0v-3l5.47-1.83,2.18.35v6.25H961.48a13,13,0,0,1-.2,1.86h12.79v2.63a.93.93,0,1,0,1.86,0V542.34l1,.16.34.07v11.9H959.94a17.15,17.15,0,0,1-1,1.86h25.58a1,1,0,0,0,.69-.31A.94.94,0,0,0,985.43,555.29Zm-6.32-.82V543.18a6.71,6.71,0,0,1,1.46.93,5.41,5.41,0,0,1,2,3.4l.86,7Z" transform="translate(-935.09 -516.34)"/></svg>