<svg id="Camada_1" data-name="Camada 1" xmlns="http://www.w3.org/2000/svg" viewBox="0 0 39.95 42.91"><defs><style>.cls-1{fill:#fff;}</style></defs><path class="cls-1" d="M966.62,536.9V537l.26,3.13a.67.67,0,0,0,.39.56.66.66,0,0,0,.27.06.68.68,0,0,0,.41-.14l2.41-1.86a1.39,1.39,0,0,0,.47-.6l4.61-10.83a5.57,5.57,0,0,0-.17,1.93.66.66,0,0,0,.66.61H976a.65.65,0,0,0,.6-.72,5.81,5.81,0,0,1,1.33-3.8,1.66,1.66,0,0,0,.38-.82,1.81,1.81,0,0,0-.88-1.82l0-.1a.9.9,0,0,0-.31-1.09l.3-.72a1.52,1.52,0,0,0-2.79-1.19l-.31.7a.87.87,0,0,0-.5,0,.94.94,0,0,0-.49.47l-6.62,15.48A1.41,1.41,0,0,0,966.62,536.9Zm1.49,1.88-.05-.54.5.19Zm8.76-14.84a.36.36,0,0,1,.12.32.53.53,0,0,1-.11.21,7.52,7.52,0,0,0-.62.9Zm-1-3.85a.18.18,0,0,1,.24-.09.17.17,0,0,1,.1.23l-.29.7-.35-.15Zm-1.47,1.63,1.66.72-1.78,4.16-1.65-.74Zm-2.3,5.37,1.66.73-4,9.44a2.74,2.74,0,0,1-1.74-.6Z" transform="translate(-940.02 -518.65)"/><path class="cls-1" d="M978.38,534.38h-1v-.09a.67.67,0,0,0-.25-.53,5.81,5.81,0,0,0-2.1-1v-.1l-1.34,3.14v0a.67.67,0,0,0,.67.66h0a.66.66,0,0,0,.67-.66v-1.69a5.05,5.05,0,0,1,1,.46v21a22.52,22.52,0,0,0-10-.65,22.84,22.84,0,0,1,8.25-1.67.66.66,0,0,0,.48-.18.67.67,0,0,0,.2-.48V539.18a.66.66,0,0,0-.66-.66.67.67,0,0,0-.67.66V552a23.5,23.5,0,0,0-13.08,4.58l0-21.56a15,15,0,0,1,6.2-3.83l.7-1.65a18.18,18.18,0,0,0-7,3.67c-.3-3.1-1.82-9.8-9.44-11.62a.68.68,0,0,0-.82.65v2.42a16.92,16.92,0,0,0-3.17-.86.72.72,0,0,0-.53.16.69.69,0,0,0-.23.5v7.94a12.21,12.21,0,0,0-3.57,1.34.67.67,0,0,0-.31.57v.09h-.93A1.6,1.6,0,0,0,940,536v17.59a.67.67,0,0,0,1.34,0V536a.26.26,0,0,1,.26-.27h.93v20.83h0v1.9a.67.67,0,0,0,.66.66h33.53a.67.67,0,0,0,.66-.66V535.71h1a.26.26,0,0,1,.26.27v24a.26.26,0,0,1-.26.27H962.29a2.4,2.4,0,0,1-1.23-.34l-.12-.08a1.81,1.81,0,0,0-1.85,0l-.15.09a2.47,2.47,0,0,1-1.21.33H941.62a.26.26,0,0,1-.26-.27v-2.9a.67.67,0,0,0-1.34,0V560a1.6,1.6,0,0,0,1.6,1.6h16.11a3.71,3.71,0,0,0,1.89-.52l.15-.09a.46.46,0,0,1,.48,0l.12.07a3.8,3.8,0,0,0,1.92.53h16.09A1.6,1.6,0,0,0,980,560V536A1.6,1.6,0,0,0,978.38,534.38Zm-34.5.29a11.24,11.24,0,0,1,2.56-.92l0,14.22a.66.66,0,0,0,.55.65,18.15,18.15,0,0,1,11,7.6c-5.74-2.76-11.84-1.32-14.11-.6Zm0,23.1V557c1.71-.57,8.37-2.44,14.22.75Zm3.91-10.34,0-14.95v-7.24a21.26,21.26,0,0,1,2.59.82V545.8a.67.67,0,0,0,.59.66c.27,0,6.35.92,8.14,9A19.21,19.21,0,0,0,947.79,547.43Zm11.56-12.79h0v.16l0,17.12a11.63,11.63,0,0,0-7.63-6.66V523.09C959.44,525.48,959.38,533.73,959.35,534.64Zm16.72,23.13H962c5.85-3,12.4-1.28,14.12-.74Z" transform="translate(-940.02 -518.65)"/></svg>