<svg id="Camada_1" data-name="Camada 1" xmlns="http://www.w3.org/2000/svg" viewBox="0 0 144.82 25.76"><defs><style>.cls-1{fill:#3c60a7;}</style></defs><polygon class="cls-1" points="2.98 25.44 0 25.44 3.02 12.15 10.98 12.15 10.45 14.46 5.48 14.46 4.71 17.89 9.34 17.89 8.79 20.19 4.16 20.19 2.98 25.44"/><polygon class="cls-1" points="9.43 25.44 12.47 12.15 15.46 12.15 12.41 25.44 9.43 25.44"/><polygon class="cls-1" points="22.65 25.44 14.66 25.44 17.69 12.15 25.68 12.15 25.15 14.46 20.15 14.46 19.5 17.38 24.16 17.38 23.62 19.69 18.96 19.69 18.18 23.11 23.18 23.11 22.65 25.44"/><path class="cls-1" d="M919.86,548.9l5.38-9.94h4.14l-3,13.29h-2.74L925,546c.34-1.5.68-2.83,1-4h0l-5.56,10.3h-2.74l-.6-10.3h0c-.07.53-.2,1.23-.37,2.1s-.79,3.6-1.83,8.2h-2.69l3-13.29h3.95l.67,9.94Z" transform="translate(-887.87 -526.81)"/><path class="cls-1" d="M937.33,548.32a3.6,3.6,0,0,1-1.45,3,6.29,6.29,0,0,1-3.92,1.1,6.59,6.59,0,0,1-3.48-.81v-2.5a7.6,7.6,0,0,0,3.5,1,3.18,3.18,0,0,0,1.71-.39,1.19,1.19,0,0,0,.61-1.06,1.67,1.67,0,0,0-.13-.69,1.9,1.9,0,0,0-.37-.55,9.85,9.85,0,0,0-1.22-.92,6.31,6.31,0,0,1-1.89-1.79,3.48,3.48,0,0,1-.55-1.9,3.66,3.66,0,0,1,.61-2.09,4,4,0,0,1,1.72-1.44,6.19,6.19,0,0,1,2.58-.51,8.4,8.4,0,0,1,3.88.9l-1.07,2.12a7,7,0,0,0-2.81-.68,2.09,2.09,0,0,0-1.33.41,1.32,1.32,0,0,0-.52,1.08,1.55,1.55,0,0,0,.32,1,6,6,0,0,0,1.45,1.1,5.58,5.58,0,0,1,1.77,1.6,3.63,3.63,0,0,1,.59,2.05" transform="translate(-887.87 -526.81)"/><polygon class="cls-1" points="57.6 25.76 57.6 0.78 56.4 0.78 56.4 25.76 57.6 25.76 57.6 25.76"/><path class="cls-1" d="M895.71,534.42a2.84,2.84,0,0,1-1,2.31,4.24,4.24,0,0,1-2.79.82,7.39,7.39,0,0,1-1.32-.1,4.31,4.31,0,0,1-1.07-.34v-1.2a5.22,5.22,0,0,0,2.4.59,2.85,2.85,0,0,0,1.81-.53,1.78,1.78,0,0,0,.67-1.47,1.42,1.42,0,0,0-.37-1,5.34,5.34,0,0,0-1.38-1,4.29,4.29,0,0,1-1.47-1.2,2.37,2.37,0,0,1-.42-1.41,2.72,2.72,0,0,1,.94-2.15,3.54,3.54,0,0,1,2.44-.83,5.89,5.89,0,0,1,1.3.14,5.62,5.62,0,0,1,1.28.45l-.47,1.06a4.19,4.19,0,0,0-1-.42,4.34,4.34,0,0,0-1.07-.16,2.31,2.31,0,0,0-1.52.49,1.67,1.67,0,0,0-.57,1.33,1.57,1.57,0,0,0,.12.65,1.42,1.42,0,0,0,.38.52,6.6,6.6,0,0,0,1,.67,8,8,0,0,1,1.4,1,2.31,2.31,0,0,1,.55.78A2.5,2.5,0,0,1,895.71,534.42Z" transform="translate(-887.87 -526.81)"/><path class="cls-1" d="M898.12,537.41h-1.19l1.65-7.73h1.19Zm.8-9.7a.93.93,0,0,1,.22-.65.75.75,0,0,1,.59-.25.56.56,0,0,1,.62.64,1,1,0,0,1-.24.65.71.71,0,0,1-.55.27.67.67,0,0,1-.46-.17A.66.66,0,0,1,898.92,527.71Z" transform="translate(-887.87 -526.81)"/><path class="cls-1" d="M905.37,535.22a2.06,2.06,0,0,1-.78,1.71,3.47,3.47,0,0,1-2.2.62,4.63,4.63,0,0,1-2.15-.49V536a4.43,4.43,0,0,0,1.07.46,3.78,3.78,0,0,0,1.05.16,2.17,2.17,0,0,0,1.34-.35,1.12,1.12,0,0,0,.46-.91,1,1,0,0,0-.25-.67,4.81,4.81,0,0,0-1.07-.76,4.15,4.15,0,0,1-1.29-1,1.79,1.79,0,0,1-.38-1.17,1.91,1.91,0,0,1,.71-1.56,2.8,2.8,0,0,1,1.87-.6,5.42,5.42,0,0,1,2.33.52l-.38,1-.4-.18a3.93,3.93,0,0,0-1.55-.3,1.62,1.62,0,0,0-1,.3,1,1,0,0,0-.37.8,1,1,0,0,0,.25.67,4.24,4.24,0,0,0,1,.73,5.9,5.9,0,0,1,1.09.73,2.27,2.27,0,0,1,.49.65A2,2,0,0,1,905.37,535.22Z" transform="translate(-887.87 -526.81)"/><path class="cls-1" d="M909.15,536.58a3.91,3.91,0,0,0,1-.18v.91a3.24,3.24,0,0,1-.59.17,2.89,2.89,0,0,1-.57.07,2,2,0,0,1-1.35-.42,1.61,1.61,0,0,1-.47-1.25,5.54,5.54,0,0,1,.13-1.06l.9-4.24H907l.1-.52,1.31-.55.88-1.61H910l-.39,1.78h1.93l-.18.9h-1.92l-.91,4.26a4.48,4.48,0,0,0-.13.93.85.85,0,0,0,.2.6A.77.77,0,0,0,909.15,536.58Z" transform="translate(-887.87 -526.81)"/><path class="cls-1" d="M914.52,537.55a2.73,2.73,0,0,1-2-.77,3,3,0,0,1-.74-2.13,6.35,6.35,0,0,1,.53-2.54,4.67,4.67,0,0,1,1.39-1.89,3.06,3.06,0,0,1,1.91-.68,2.43,2.43,0,0,1,1.62.47,1.62,1.62,0,0,1,.55,1.31,2.24,2.24,0,0,1-1.17,2,6.44,6.44,0,0,1-3.35.72H913l0,.57a2.19,2.19,0,0,0,.43,1.44,1.67,1.67,0,0,0,1.34.52,3.78,3.78,0,0,0,.92-.13,7,7,0,0,0,1.16-.47v1a6.72,6.72,0,0,1-1.17.44A4.87,4.87,0,0,1,914.52,537.55Zm1-7a1.88,1.88,0,0,0-1.36.66,4.35,4.35,0,0,0-1,1.84h.09a5.73,5.73,0,0,0,2.46-.42,1.32,1.32,0,0,0,.86-1.21.86.86,0,0,0-.26-.63A1.15,1.15,0,0,0,915.5,530.55Z" transform="translate(-887.87 -526.81)"/><path class="cls-1" d="M923.08,537.41l1-4.88a6.11,6.11,0,0,0,.12-.95,1.18,1.18,0,0,0-.22-.77.89.89,0,0,0-.74-.28,1.88,1.88,0,0,0-1.16.43,3.58,3.58,0,0,0-1,1.21,6.54,6.54,0,0,0-.66,1.89l-.71,3.35h-1.19l1.65-7.73h1l-.15,1.43h.07a4.28,4.28,0,0,1,1.22-1.2,2.39,2.39,0,0,1,1.26-.37,1.6,1.6,0,0,1,1.23.46,2.1,2.1,0,0,1,.5,1.27h.06a4.43,4.43,0,0,1,1.29-1.3,2.56,2.56,0,0,1,1.38-.43,1.69,1.69,0,0,1,1.88,1.88,6.32,6.32,0,0,1-.16,1.25l-1,4.74h-1.2l1-4.88a5.73,5.73,0,0,0,.14-1,1,1,0,0,0-.24-.7,1,1,0,0,0-.76-.27,1.89,1.89,0,0,0-1.13.41,3.68,3.68,0,0,0-1,1.16,6.53,6.53,0,0,0-.64,1.78l-.75,3.53Z" transform="translate(-887.87 -526.81)"/><path class="cls-1" d="M935.28,529.54a2,2,0,0,1,1.15.35,2.28,2.28,0,0,1,.79,1h.08l.47-1.21h.9L937,537.41h-.93l.18-1.47h-.06a3.48,3.48,0,0,1-2.66,1.61,1.84,1.84,0,0,1-1.53-.7,3,3,0,0,1-.56-1.91,7.35,7.35,0,0,1,.5-2.72,4.76,4.76,0,0,1,1.38-2A3,3,0,0,1,935.28,529.54Zm-1.34,7a2,2,0,0,0,1.36-.65,5,5,0,0,0,1.1-1.7,5.62,5.62,0,0,0,.42-2.1,1.64,1.64,0,0,0-.4-1.16,1.34,1.34,0,0,0-1-.43,2,2,0,0,0-1.37.61,4.07,4.07,0,0,0-1,1.64,6.62,6.62,0,0,0-.36,2.19,1.83,1.83,0,0,0,.33,1.2A1.16,1.16,0,0,0,933.94,536.57Z" transform="translate(-887.87 -526.81)"/><polygon class="cls-1" points="105.03 25.09 86.91 25.09 91.9 1.76 110.42 1.76 109.3 5.82 97.72 5.82 96.33 10.94 107.41 10.94 106.21 15.61 95.13 15.61 94.01 20.6 106.26 20.62 105.03 25.09"/><polygon class="cls-1" points="133.4 25.24 138.47 1.61 144.82 1.61 139.71 25.24 133.4 25.24"/><path class="cls-1" d="M951,544.38h6.78l0,.24a2.67,2.67,0,0,0,.83,2.62,3.29,3.29,0,0,0,2.45.63,5.38,5.38,0,0,0,2.9-.63,2.37,2.37,0,0,0,1.3-1.88c.17-1.21-1-2.1-4.18-2.69-.65-.12-1.17-.19-1.51-.28a10,10,0,0,1-4.64-2.29,4.7,4.7,0,0,1-1.43-4.4,7.46,7.46,0,0,1,3.6-5.62,12.23,12.23,0,0,1,7.43-2.18c3.47,0,6,.59,7.47,1.74s2.18,3,2,5.47h-6.83V535a1.91,1.91,0,0,0-.78-2c-.65-.45-.79-.53-2.17-.53a4.66,4.66,0,0,0-2.07.55,2.19,2.19,0,0,0-1.29,1.66c-.15,1.13-.21,1.88,2.91,2.48.56.1,1,.19,1.29.26l.27,0c3.44.68,4.89,1.52,5.9,2.5a4.63,4.63,0,0,1,1.23,2.11,6.39,6.39,0,0,1,.17,2.71,7.52,7.52,0,0,1-3.73,5.72,16.73,16.73,0,0,1-8.81,2c-3.74,0-5.41-.45-7.1-1.76s-2.38-3.29-2-5.92l.07-.51Z" transform="translate(-887.87 -526.81)"/><path class="cls-1" d="M997.45,544.38h6.77l0,.24a2.67,2.67,0,0,0,.84,2.62,3.27,3.27,0,0,0,2.45.63,5.34,5.34,0,0,0,2.89-.63,2.4,2.4,0,0,0,1.31-1.88c.16-1.21-.95-2.1-4.18-2.69-.66-.12-1.17-.19-1.51-.28a10.06,10.06,0,0,1-4.65-2.29,4.72,4.72,0,0,1-1.42-4.4,7.43,7.43,0,0,1,3.6-5.62,12.23,12.23,0,0,1,7.43-2.18c3.46,0,5.95.59,7.47,1.74s2.18,3,2,5.47h-6.83V535a1.93,1.93,0,0,0-.79-2c-.64-.45-.78-.53-2.16-.53a4.66,4.66,0,0,0-2.07.55,2.18,2.18,0,0,0-1.3,1.66c-.15,1.13-.21,1.88,2.92,2.48.55.1,1,.19,1.28.26l.28,0c3.43.68,4.89,1.52,5.9,2.5a4.72,4.72,0,0,1,1.23,2.11,6.39,6.39,0,0,1,.17,2.71,7.55,7.55,0,0,1-3.73,5.72,16.75,16.75,0,0,1-8.81,2c-3.75,0-5.41-.45-7.1-1.76s-2.38-3.29-2-5.92l.08-.51Z" transform="translate(-887.87 -526.81)"/></svg>