<svg id="Camada_1" data-name="Camada 1" xmlns="http://www.w3.org/2000/svg" viewBox="0 0 251.78 40.28"><defs><style>.cls-1{fill:#001338;}</style></defs><path class="cls-1" d="M1035,534.91a.26.26,0,0,1-.14-.28l.12-.91c0-.19.13-.21.28-.14a6.41,6.41,0,0,0,3.21.88c1.91,0,3.38-1,3.38-2.63,0-1.25-1.1-2-2.61-2.66s-3-1.62-3-3.41c0-2.17,2-3.69,4.49-3.69a7.79,7.79,0,0,1,2.91.53.23.23,0,0,1,.15.26l-.09.88a.18.18,0,0,1-.28.15,6.4,6.4,0,0,0-2.69-.58c-1.59,0-2.88.93-2.88,2.28s1.21,1.88,2.54,2.5c1.74.8,3.1,1.76,3.1,3.5,0,2.39-2.11,4.14-5,4.14A7.36,7.36,0,0,1,1035,534.91Z" transform="translate(-834.11 -519.86)"/><path class="cls-1" d="M1053.5,526.56h1a.19.19,0,0,1,.21.24l-1,8.52c0,.15-.09.21-.22.21h-1a.19.19,0,0,1-.2-.24l.17-1.46a4.17,4.17,0,0,1-3.55,1.87,3.92,3.92,0,0,1-3.85-4.13,5.1,5.1,0,0,1,5-5.2,3.1,3.1,0,0,1,3.09,1.81l.18-1.42A.2.2,0,0,1,1053.5,526.56Zm-.71,4a2.61,2.61,0,0,0-2.71-2.81,3.56,3.56,0,0,0-3.53,3.7,2.7,2.7,0,0,0,2.71,2.9A3.61,3.61,0,0,0,1052.79,530.56Z" transform="translate(-834.11 -519.86)"/><path class="cls-1" d="M1063.14,526.56h1c.15,0,.22.09.2.24l-1,8.52a.21.21,0,0,1-.23.21h-.84c-.15,0-.2-.08-.2-.23l.07-1.21a3.84,3.84,0,0,1-3.21,1.61,2.57,2.57,0,0,1-2.79-2.79,5.06,5.06,0,0,1,.06-.76l.67-5.39a.2.2,0,0,1,.23-.2h1a.19.19,0,0,1,.21.24l-.66,5.31a4.69,4.69,0,0,0,0,.62,1.62,1.62,0,0,0,1.83,1.79c1.55,0,2.62-1.23,2.86-3l.58-4.73C1062.94,526.61,1063,526.56,1063.14,526.56Zm.23-4.32a.18.18,0,0,1-.08.15l-2.69,3a.37.37,0,0,1-.28.13h-.58c-.17,0-.24-.09-.15-.26l1.8-3a.28.28,0,0,1,.28-.15l1.51,0C1063.29,522.11,1063.37,522.17,1063.37,522.24Z" transform="translate(-834.11 -519.86)"/><path class="cls-1" d="M1075.5,521.55h1a.19.19,0,0,1,.21.24l-1.66,13.53a.21.21,0,0,1-.23.21h-1a.19.19,0,0,1-.2-.24l.17-1.46a4.17,4.17,0,0,1-3.55,1.87,3.92,3.92,0,0,1-3.85-4.13,5.11,5.11,0,0,1,5-5.2,3.1,3.1,0,0,1,3.08,1.81l.8-6.42A.21.21,0,0,1,1075.5,521.55Zm-1.33,9a2.62,2.62,0,0,0-2.71-2.83,3.56,3.56,0,0,0-3.53,3.7,2.7,2.7,0,0,0,2.71,2.9A3.61,3.61,0,0,0,1074.17,530.58Z" transform="translate(-834.11 -519.86)"/><path class="cls-1" d="M1085.89,530c0,.75-.17,1.08-.77,1.08H1079a2,2,0,0,0,0,.34,2.77,2.77,0,0,0,2.94,3,5.65,5.65,0,0,0,3.08-1,.22.22,0,0,1,.15-.06c.07,0,.13.08.11.21l-.07.91a.33.33,0,0,1-.15.27,6.11,6.11,0,0,1-3.39,1,4,4,0,0,1-4.2-4.17,5.05,5.05,0,0,1,4.91-5.16A3.36,3.36,0,0,1,1085.89,530Zm-6.64,0h5.33a2.14,2.14,0,0,0-2.3-2.26A3.24,3.24,0,0,0,1079.25,529.94Z" transform="translate(-834.11 -519.86)"/><path class="cls-1" d="M1029.72,530c0,.74-.17,1.08-.76,1.08h-6.1c0,.11,0,.23,0,.34a2.76,2.76,0,0,0,2.93,3,5.58,5.58,0,0,0,3.08-1,.26.26,0,0,1,.15-.06c.08,0,.13.08.11.21l-.07.91a.32.32,0,0,1-.15.26,6,6,0,0,1-3.38,1,4,4,0,0,1-4.21-4.16,5,5,0,0,1,4.92-5.16A3.36,3.36,0,0,1,1029.72,530Zm-6.63,0h5.32a2.13,2.13,0,0,0-2.29-2.26A3.21,3.21,0,0,0,1023.09,530Z" transform="translate(-834.11 -519.86)"/><path class="cls-1" d="M928.84,535a.25.25,0,0,1-.14-.28l.12-.91c0-.19.13-.21.28-.13a6.51,6.51,0,0,0,3.21.87c1.91,0,3.38-1,3.38-2.63,0-1.25-1.1-1.94-2.61-2.65S930,527.59,930,525.8c0-2.17,2-3.68,4.49-3.68a7.8,7.8,0,0,1,2.91.52.23.23,0,0,1,.15.26l-.09.88a.18.18,0,0,1-.28.15,6.4,6.4,0,0,0-2.69-.58c-1.59,0-2.88.93-2.88,2.28s1.21,1.89,2.54,2.5c1.74.81,3.1,1.76,3.1,3.5,0,2.39-2.11,4.15-5,4.15A7.36,7.36,0,0,1,928.84,535Z" transform="translate(-834.11 -519.86)"/><path class="cls-1" d="M947.28,530c0,.75-.17,1.09-.77,1.09h-6.09a1.83,1.83,0,0,0,0,.33,2.77,2.77,0,0,0,2.94,3,5.52,5.52,0,0,0,3.08-1,.24.24,0,0,1,.15-.06c.08,0,.13.08.11.21l-.07.92a.33.33,0,0,1-.15.26,6.1,6.1,0,0,1-3.38,1,4,4,0,0,1-4.21-4.17,5.06,5.06,0,0,1,4.92-5.16A3.36,3.36,0,0,1,947.28,530Zm-6.63,0H946a2.14,2.14,0,0,0-2.3-2.26A3.22,3.22,0,0,0,940.65,530Z" transform="translate(-834.11 -519.86)"/><path class="cls-1" d="M958.33,526.79l-.9,7.25A5.22,5.22,0,0,1,952,539a6.52,6.52,0,0,1-3.19-.71.24.24,0,0,1-.15-.28l.11-1c0-.11.06-.16.17-.07a5.67,5.67,0,0,0,3,.82,3.58,3.58,0,0,0,3.89-3.31l.09-.71a4.62,4.62,0,0,1-3.55,1.63,3.61,3.61,0,0,1-3.68-3.87,4.84,4.84,0,0,1,4.73-5,3.56,3.56,0,0,1,3.21,1.72l.19-1.36c0-.11.06-.19.21-.19h1.12C958.27,526.6,958.35,526.64,958.33,526.79Zm-2.06,4.41.08-.56v-.19a2.67,2.67,0,0,0-2.68-2.82,3.54,3.54,0,0,0-3.45,3.66,2.54,2.54,0,0,0,2.65,2.75A3.47,3.47,0,0,0,956.27,531.2Z" transform="translate(-834.11 -519.86)"/><path class="cls-1" d="M966.66,526.6h1.05c.15,0,.22.09.21.24l-1,8.52c0,.15-.09.21-.23.21h-.84c-.15,0-.2-.07-.2-.22l.07-1.22a3.82,3.82,0,0,1-3.21,1.61,2.56,2.56,0,0,1-2.79-2.79,5.06,5.06,0,0,1,.06-.76l.67-5.38a.21.21,0,0,1,.23-.21h1a.19.19,0,0,1,.21.24l-.65,5.31a3.5,3.5,0,0,0-.06.62,1.62,1.62,0,0,0,1.83,1.79c1.55,0,2.62-1.23,2.86-3l.58-4.72C966.46,526.66,966.53,526.6,966.66,526.6Z" transform="translate(-834.11 -519.86)"/><path class="cls-1" d="M975.24,526.41c.15,0,.23.08.21.25l-.13,1.12a.2.2,0,0,1-.23.2,3.7,3.7,0,0,0-1.51.38c-1.2.59-2.06,2-2.32,4.2l-.35,2.8a.21.21,0,0,1-.23.21h-1c-.15,0-.22-.09-.2-.24l1-8.52a.2.2,0,0,1,.22-.21h1a.19.19,0,0,1,.21.24l-.32,2.66,0,0C972.34,527.53,973.58,526.51,975.24,526.41Z" transform="translate(-834.11 -519.86)"/><path class="cls-1" d="M984.7,526.6h1a.19.19,0,0,1,.21.24l-1.05,8.52a.2.2,0,0,1-.22.21h-1c-.15,0-.22-.09-.2-.24l.17-1.46a4.17,4.17,0,0,1-3.55,1.87,3.92,3.92,0,0,1-3.85-4.13,5.1,5.1,0,0,1,5-5.2,3.09,3.09,0,0,1,3.09,1.82l.18-1.42A.21.21,0,0,1,984.7,526.6Zm-.71,4a2.6,2.6,0,0,0-2.71-2.8,3.55,3.55,0,0,0-3.53,3.7,2.7,2.7,0,0,0,2.71,2.89A3.61,3.61,0,0,0,984,530.6Z" transform="translate(-834.11 -519.86)"/><path class="cls-1" d="M995.58,529.16a5.16,5.16,0,0,1-.08.79l-.67,5.41a.21.21,0,0,1-.23.21h-1a.19.19,0,0,1-.21-.24l.62-5.27a2.9,2.9,0,0,0,0-.58c0-1.27-.76-1.8-1.92-1.8a3,3,0,0,0-2.92,2.86l-.59,4.82a.21.21,0,0,1-.23.21h-1a.19.19,0,0,1-.21-.24l1-8.52c0-.15.09-.21.22-.21h1a.19.19,0,0,1,.21.24l-.15,1.24a3.71,3.71,0,0,1,3.21-1.67C994.4,526.41,995.58,527.35,995.58,529.16Z" transform="translate(-834.11 -519.86)"/><path class="cls-1" d="M998.83,531.51a2.93,2.93,0,0,0,3.18,3,4.8,4.8,0,0,0,2-.45.3.3,0,0,1,.11,0c.1,0,.15.08.14.21l-.1.86a.34.34,0,0,1-.18.26,7.43,7.43,0,0,1-2.28.41l-.49.61h.09c.79,0,1.31.42,1.31,1.07,0,.93-.93,1.51-2,1.51a3,3,0,0,1-1.19-.2.27.27,0,0,1-.15-.28l0-.34c0-.15.13-.2.28-.15a2.7,2.7,0,0,0,1,.21c.57,0,1.08-.25,1.08-.66s-.36-.52-.82-.52a3.37,3.37,0,0,0-.71.09.19.19,0,0,1,0-.26l.84-1.12a4,4,0,0,1-3.68-4.09,5.18,5.18,0,0,1,5.47-5.18,5.26,5.26,0,0,1,2.15.39.23.23,0,0,1,.15.27l-.09.87c0,.19-.11.25-.24.17a3.63,3.63,0,0,0-1.89-.46A3.83,3.83,0,0,0,998.83,531.51Z" transform="translate(-834.11 -519.86)"/><path class="cls-1" d="M1014.53,526.6h1a.19.19,0,0,1,.21.24l-1,8.52c0,.15-.09.21-.22.21h-1c-.15,0-.22-.09-.2-.24l.16-1.46a4.14,4.14,0,0,1-3.55,1.87,3.93,3.93,0,0,1-3.85-4.13,5.11,5.11,0,0,1,5-5.2,3.09,3.09,0,0,1,3.09,1.82l.18-1.42A.21.21,0,0,1,1014.53,526.6Zm-.71,4a2.6,2.6,0,0,0-2.71-2.8,3.55,3.55,0,0,0-3.53,3.7,2.7,2.7,0,0,0,2.71,2.89A3.61,3.61,0,0,0,1013.82,530.6Z" transform="translate(-834.11 -519.86)"/><path class="cls-1" d="M940.09,554.24a5.28,5.28,0,0,1,5.29-5.13,4.05,4.05,0,0,1,4.15,4.14,5.35,5.35,0,0,1-5.29,5.2A4.09,4.09,0,0,1,940.09,554.24Zm7.95-.91a2.71,2.71,0,0,0-2.83-2.86,3.66,3.66,0,0,0-3.62,3.7,2.77,2.77,0,0,0,2.8,2.93A3.69,3.69,0,0,0,948,553.33Z" transform="translate(-834.11 -519.86)"/><path class="cls-1" d="M965,545.24l-.11.88a.2.2,0,0,1-.23.2H961l-1.5,11.74a.19.19,0,0,1-.22.2h-1.08A.19.19,0,0,1,958,558l1.48-11.7h-3.59a.21.21,0,0,1-.23-.24l.12-.88c0-.15.09-.21.22-.21h8.77A.2.2,0,0,1,965,545.24Z" transform="translate(-834.11 -519.86)"/><path class="cls-1" d="M969.74,549.11c.15,0,.22.07.2.24l-.13,1.12c0,.15-.09.21-.22.21a3.7,3.7,0,0,0-1.52.37c-1.19.6-2.05,2.05-2.31,4.2l-.36,2.81c0,.15-.09.2-.22.2h-1a.19.19,0,0,1-.21-.24l1-8.52c0-.15.09-.21.23-.21h1c.15,0,.22.1.2.25l-.32,2.65,0,0C966.84,550.23,968.07,549.2,969.74,549.11Z" transform="translate(-834.11 -519.86)"/><path class="cls-1" d="M979.19,549.29h1c.15,0,.22.1.2.25l-1,8.52a.2.2,0,0,1-.23.2h-1a.19.19,0,0,1-.21-.24l.17-1.46a4.14,4.14,0,0,1-3.55,1.87,3.93,3.93,0,0,1-3.85-4.13,5.11,5.11,0,0,1,5-5.19,3.09,3.09,0,0,1,3.08,1.81l.19-1.42C979,549.35,979.06,549.29,979.19,549.29Zm-.71,4a2.6,2.6,0,0,0-2.71-2.8,3.56,3.56,0,0,0-3.53,3.7,2.71,2.71,0,0,0,2.71,2.9A3.62,3.62,0,0,0,978.48,553.29Z" transform="translate(-834.11 -519.86)"/><path class="cls-1" d="M991.23,553.16a5.13,5.13,0,0,1-5,5.27,3.3,3.3,0,0,1-3.16-1.87l-.19,1.5c0,.15-.09.2-.22.2h-1.05c-.15,0-.22-.09-.2-.24l1.66-13.53c0-.15.09-.21.22-.21h1c.15,0,.22.1.21.25l-.79,6.39a4.27,4.27,0,0,1,3.57-1.81A3.79,3.79,0,0,1,991.23,553.16Zm-1.55.17a2.65,2.65,0,0,0-2.75-2.84,3.51,3.51,0,0,0-3.46,3l0,.31a2.42,2.42,0,0,0,0,.38,2.68,2.68,0,0,0,2.69,2.88A3.65,3.65,0,0,0,989.68,553.33Z" transform="translate(-834.11 -519.86)"/><path class="cls-1" d="M1001.3,549.29h1.05c.15,0,.22.1.2.25l-1,8.52a.2.2,0,0,1-.23.2h-1a.19.19,0,0,1-.21-.24l.17-1.46a4.14,4.14,0,0,1-3.55,1.87,3.93,3.93,0,0,1-3.85-4.13,5.11,5.11,0,0,1,5-5.19,3.09,3.09,0,0,1,3.08,1.81l.19-1.42C1001.1,549.35,1001.17,549.29,1001.3,549.29Zm-.71,4a2.6,2.6,0,0,0-2.71-2.8,3.56,3.56,0,0,0-3.53,3.7,2.71,2.71,0,0,0,2.71,2.9A3.62,3.62,0,0,0,1000.59,553.29Z" transform="translate(-834.11 -519.86)"/><path class="cls-1" d="M1004.13,556.71c0-.15,0-.43,0-.69l1.48-11.55c0-.15.09-.2.22-.2h1a.19.19,0,0,1,.21.24L1005.68,556a2.14,2.14,0,0,0,0,.32.8.8,0,0,0,.9.92,2.3,2.3,0,0,0,.78-.15.3.3,0,0,1,.11,0c.1,0,.15.08.14.21l-.1.74c0,.12-.05.19-.15.23a4.25,4.25,0,0,1-1.44.26A1.57,1.57,0,0,1,1004.13,556.71Z" transform="translate(-834.11 -519.86)"/><path class="cls-1" d="M1017.25,551.87a4.9,4.9,0,0,1-.06.77l-.67,5.42a.2.2,0,0,1-.23.2h-1a.19.19,0,0,1-.21-.24l.62-5.25a5.74,5.74,0,0,0,0-.6c0-1.27-.74-1.79-1.92-1.79-1.59,0-2.71,1.17-2.93,3l-.58,4.71a.2.2,0,0,1-.23.2h-1a.19.19,0,0,1-.21-.24l1.66-13.53a.21.21,0,0,1,.23-.21h1c.15,0,.22.1.2.25l-.76,6.24a3.72,3.72,0,0,1,3.21-1.66C1016.07,549.11,1017.25,550,1017.25,551.87Z" transform="translate(-834.11 -519.86)"/><path class="cls-1" d="M1019.12,554.24a5.28,5.28,0,0,1,5.28-5.13,4.05,4.05,0,0,1,4.15,4.14,5.35,5.35,0,0,1-5.29,5.2A4.08,4.08,0,0,1,1019.12,554.24Zm7.94-.91a2.71,2.71,0,0,0-2.82-2.86,3.66,3.66,0,0,0-3.63,3.7,2.77,2.77,0,0,0,2.8,2.93A3.68,3.68,0,0,0,1027.06,553.33Z" transform="translate(-834.11 -519.86)"/><path class="cls-1" d="M938.87,552a6.46,6.46,0,0,1-.07.78l-.68,5.42a.2.2,0,0,1-.22.21h-1c-.15,0-.22-.09-.2-.24l.61-5.27a2.93,2.93,0,0,0,.06-.58c0-1.27-.77-1.8-1.92-1.8a3,3,0,0,0-2.92,2.86l-.6,4.82c0,.15-.09.21-.22.21h-1c-.15,0-.22-.09-.2-.24l1-8.52a.21.21,0,0,1,.23-.21h1c.15,0,.22.09.21.24l-.15,1.24a3.71,3.71,0,0,1,3.21-1.67C937.69,549.29,938.87,550.23,938.87,552Z" transform="translate(-834.11 -519.86)"/><polygon class="cls-1" points="81.96 40.27 81.96 2.64 80.15 2.64 80.15 40.27 81.96 40.27 81.96 40.27"/><path class="cls-1" d="M861.71,522.5a7.93,7.93,0,0,0-3-.76A3,3,0,0,0,856,523a2.36,2.36,0,0,0-.33,1.18,2.42,2.42,0,0,0,.11.67c.2.63.73,1.08,1.85,1.75,1.34.8,2.59,1.54,3.17,3.1a4.14,4.14,0,0,1,.27,1.49,4.62,4.62,0,0,1-.56,2.15A5.47,5.47,0,0,1,855.3,536a10.26,10.26,0,0,1-4.19-.94l.73-1.92a8.55,8.55,0,0,0,3.46.94,4.25,4.25,0,0,0,1.45-.25,2.92,2.92,0,0,0,2-2.7,2.38,2.38,0,0,0-1.2-2c-.83-.64-1.79-1.07-2.64-1.67a3.72,3.72,0,0,1-1.67-3.17,4.47,4.47,0,0,1,1.7-3.4,5.65,5.65,0,0,1,3.64-1.07,9.61,9.61,0,0,1,3.72.78Z" transform="translate(-834.11 -519.86)"/><path class="cls-1" d="M885.23,522.5a7.93,7.93,0,0,0-3-.76,3,3,0,0,0-2.75,1.27,2.4,2.4,0,0,0-.34,1.18,2.54,2.54,0,0,0,.12.67c.2.63.73,1.08,1.85,1.75,1.34.8,2.59,1.54,3.17,3.1a4.14,4.14,0,0,1,.27,1.49,4.62,4.62,0,0,1-.56,2.15,5.47,5.47,0,0,1-5.16,2.68,10.37,10.37,0,0,1-4.2-.94l.74-1.92a8.55,8.55,0,0,0,3.46.94,4.25,4.25,0,0,0,1.45-.25,2.92,2.92,0,0,0,2-2.7,2.38,2.38,0,0,0-1.2-2c-.83-.64-1.79-1.07-2.64-1.67a3.72,3.72,0,0,1-1.67-3.17,4.49,4.49,0,0,1,1.69-3.4,5.7,5.7,0,0,1,3.64-1.07,9.62,9.62,0,0,1,3.73.78Z" transform="translate(-834.11 -519.86)"/><path class="cls-1" d="M892.84,520.1l-3.34,15.69h-2.25l3.34-15.69Z" transform="translate(-834.11 -519.86)"/><path class="cls-1" d="M874.63,520.1l-.36,1.83h-6.22L867,527h4.25l-.37,1.83h-4.27l-1.07,5.1h6.37l-.36,1.83h-8.65l3.34-15.69Z" transform="translate(-834.11 -519.86)"/><path class="cls-1" d="M839.19,559.81h-5.08l4-19h12.77l-.76,3.6h-7.7l-.9,4.23h7.32l-.73,3.55h-7.34Z" transform="translate(-834.11 -519.86)"/><path class="cls-1" d="M854.1,539.34H859l-4.35,20.47h-4.91Z" transform="translate(-834.11 -519.86)"/><path class="cls-1" d="M875.63,552.72a8.83,8.83,0,0,1-3.42,5.4,10.45,10.45,0,0,1-6.43,2,7.17,7.17,0,0,1-5.55-2,5.81,5.81,0,0,1-1.11-5.4,8.84,8.84,0,0,1,3.42-5.44,10.39,10.39,0,0,1,6.4-2q3.73,0,5.58,2A5.87,5.87,0,0,1,875.63,552.72Zm-5.08,0a4.24,4.24,0,0,0-.19-3,2.26,2.26,0,0,0-2.15-1,3.47,3.47,0,0,0-2.57,1,5.85,5.85,0,0,0-1.45,3,4.15,4.15,0,0,0,.21,2.91,2.23,2.23,0,0,0,2.11,1.07,3.52,3.52,0,0,0,2.59-1.07A5.69,5.69,0,0,0,870.55,552.72Z" transform="translate(-834.11 -519.86)"/><path class="cls-1" d="M894.09,545.59l.22,10.4,4.44-10.4h4.78l-7.36,14.22h-5.71l-.21-10.4-4.94,10.4H879.6l-1.34-14.22h5.16l.08,10.4,4.69-10.4Z" transform="translate(-834.11 -519.86)"/></svg>