<svg id="Camada_1" data-name="Camada 1" xmlns="http://www.w3.org/2000/svg" viewBox="0 0 144.82 42.18"><defs><style>.cls-1{fill:#3c60a7;}</style></defs><path class="cls-1" d="M955.88,556.9a1.39,1.39,0,0,0-.72-.19c-.37,0-.77.15-.77.62,0,.65,1.34.66,1.34,1.68a1.26,1.26,0,0,1-1.36,1.26,2.85,2.85,0,0,1-1.09-.22l.18-.52a1.61,1.61,0,0,0,.82.25c.6,0,.85-.37.85-.7,0-.8-1.34-.66-1.34-1.74a1.19,1.19,0,0,1,1.3-1.12,2.46,2.46,0,0,1,.94.18Z" transform="translate(-888.02 -518.62)"/><polygon class="cls-1" points="69.03 37.66 69.59 37.66 68.75 41.58 68.19 41.58 69.03 37.66"/><path class="cls-1" d="M960.25,556.9a1.39,1.39,0,0,0-.72-.19c-.37,0-.77.15-.77.62,0,.65,1.34.66,1.34,1.68a1.26,1.26,0,0,1-1.36,1.26,2.85,2.85,0,0,1-1.09-.22l.18-.52a1.61,1.61,0,0,0,.82.25c.6,0,.85-.37.85-.7,0-.8-1.34-.66-1.34-1.74a1.19,1.19,0,0,1,1.3-1.12,2.46,2.46,0,0,1,.94.18Z" transform="translate(-888.02 -518.62)"/><polygon class="cls-1" points="75.86 38.16 74.64 38.16 73.91 41.58 73.34 41.58 74.08 38.16 72.86 38.16 72.97 37.66 75.97 37.66 75.86 38.16"/><polygon class="cls-1" points="76.56 37.66 78.69 37.66 78.58 38.16 77.03 38.16 76.77 39.3 78.23 39.3 78.13 39.8 76.66 39.8 76.38 41.09 78.02 41.09 77.91 41.58 75.7 41.58 76.56 37.66"/><polygon class="cls-1" points="79.72 37.66 80.56 37.66 81.1 40.87 83.01 37.66 83.93 37.66 83.09 41.58 82.53 41.58 83.25 38.23 83.24 38.23 81.22 41.58 80.68 41.58 80.13 38.23 80.12 38.23 79.37 41.58 78.83 41.58 79.72 37.66"/><path class="cls-1" d="M974.46,556.89l-1.19,1.87h1.56Zm-.18-.6h.55l.87,3.91h-.58l-.21-1H973l-.63,1h-.63Z" transform="translate(-888.02 -518.62)"/><path class="cls-1" d="M978.66,556.9a1.38,1.38,0,0,0-.71-.19c-.38,0-.78.15-.78.62,0,.65,1.34.66,1.34,1.68a1.25,1.25,0,0,1-1.36,1.26,2.85,2.85,0,0,1-1.09-.22l.18-.52a1.61,1.61,0,0,0,.83.25.74.74,0,0,0,.84-.7c0-.8-1.33-.66-1.33-1.74a1.19,1.19,0,0,1,1.29-1.12,2.55,2.55,0,0,1,1,.18Z" transform="translate(-888.02 -518.62)"/><path class="cls-1" d="M981.24,559.71h.6a1.68,1.68,0,0,0,1.8-1.78c0-.67-.31-1.15-1.45-1.15h-.32Zm.16-3.42h.87c1.38,0,2,.7,2,1.58a2.22,2.22,0,0,1-2.5,2.33h-1.17Z" transform="translate(-888.02 -518.62)"/><polygon class="cls-1" points="97.47 37.66 99.59 37.66 99.48 38.16 97.93 38.16 97.68 39.3 99.13 39.3 99.04 39.8 97.57 39.8 97.28 41.09 98.93 41.09 98.82 41.58 96.61 41.58 97.47 37.66"/><path class="cls-1" d="M992.87,556.93a2.24,2.24,0,0,0-1-.22,1.7,1.7,0,0,0-1.77,1.8,1.21,1.21,0,0,0,1.34,1.27,1.88,1.88,0,0,0,.47,0l.25-1.21h-.81l.11-.46h1.36l-.45,2.09a4.11,4.11,0,0,1-1,.12,1.66,1.66,0,0,1-1.84-1.79,2.23,2.23,0,0,1,2.35-2.26,3.1,3.1,0,0,1,1.2.22Z" transform="translate(-888.02 -518.62)"/><polygon class="cls-1" points="106.21 37.66 108.33 37.66 108.22 38.16 106.67 38.16 106.42 39.3 107.87 39.3 107.78 39.8 106.31 39.8 106.02 41.09 107.67 41.09 107.56 41.58 105.35 41.58 106.21 37.66"/><path class="cls-1" d="M999,556.9a1.39,1.39,0,0,0-.72-.19c-.37,0-.77.15-.77.62,0,.65,1.34.66,1.34,1.68a1.25,1.25,0,0,1-1.36,1.26,2.85,2.85,0,0,1-1.09-.22l.18-.52a1.61,1.61,0,0,0,.82.25c.6,0,.85-.37.85-.7,0-.8-1.34-.66-1.34-1.74a1.2,1.2,0,0,1,1.3-1.12,2.46,2.46,0,0,1,.94.18Z" transform="translate(-888.02 -518.62)"/><polygon class="cls-1" points="114.56 38.16 113.34 38.16 112.61 41.58 112.04 41.58 112.78 38.16 111.56 38.16 111.67 37.66 114.67 37.66 114.56 38.16"/><path class="cls-1" d="M1003.72,556c0-.24.14-.63.52-.63s.63.27.87.26.24-.13.26-.26h.26c0,.24-.15.63-.53.63s-.63-.26-.87-.26-.24.13-.26.26Zm.7.88-1.18,1.87h1.55Zm-.18-.6h.56l.86,3.91h-.57l-.21-1H1003l-.62,1h-.63Z" transform="translate(-888.02 -518.62)"/><path class="cls-1" d="M1008,559.78c1,0,1.54-1,1.54-1.89s-.34-1.18-1-1.18a1.77,1.77,0,0,0-1.6,1.92,1,1,0,0,0,1.07,1.15m.55-3.56a1.46,1.46,0,0,1,1.59,1.59,2.25,2.25,0,0,1-2.16,2.46,1.47,1.47,0,0,1-1.64-1.66,2.29,2.29,0,0,1,2.21-2.39" transform="translate(-888.02 -518.62)"/><polygon class="cls-1" points="124.94 37.66 127.07 37.66 126.95 38.16 125.41 38.16 125.15 39.3 126.61 39.3 126.51 39.8 125.04 39.8 124.75 41.09 126.4 41.09 126.29 41.58 124.08 41.58 124.94 37.66"/><polygon class="cls-1" points="128.1 37.66 128.94 37.66 129.48 40.87 131.38 37.66 132.31 37.66 131.47 41.58 130.91 41.58 131.63 38.23 131.62 38.23 129.6 41.58 129.06 41.58 128.51 38.23 128.5 38.23 127.75 41.58 127.2 41.58 128.1 37.66"/><path class="cls-1" d="M1024.54,556.9a1.33,1.33,0,0,0-.71-.19c-.37,0-.77.15-.77.62,0,.65,1.33.66,1.33,1.68a1.25,1.25,0,0,1-1.35,1.26,2.81,2.81,0,0,1-1.09-.22l.17-.52a1.64,1.64,0,0,0,.83.25c.59,0,.85-.37.85-.7,0-.8-1.34-.66-1.34-1.74a1.19,1.19,0,0,1,1.3-1.12,2.53,2.53,0,0,1,.94.18Z" transform="translate(-888.02 -518.62)"/><path class="cls-1" d="M1027.35,556.9a1.33,1.33,0,0,0-.71-.19c-.37,0-.77.15-.77.62,0,.65,1.33.66,1.33,1.68a1.25,1.25,0,0,1-1.35,1.26,2.9,2.9,0,0,1-1.1-.22l.18-.52a1.61,1.61,0,0,0,.83.25c.59,0,.85-.37.85-.7,0-.8-1.34-.66-1.34-1.74a1.19,1.19,0,0,1,1.3-1.12,2.53,2.53,0,0,1,.94.18Z" transform="translate(-888.02 -518.62)"/><polygon class="cls-1" points="142.97 38.16 141.75 38.16 141.01 41.58 140.45 41.58 141.18 38.16 139.96 38.16 140.07 37.66 143.07 37.66 142.97 38.16"/><path class="cls-1" d="M967,525.63a4.27,4.27,0,0,0-2.25-.54,3.17,3.17,0,0,0-3.38,3.41,2.2,2.2,0,0,0,2.46,2.35,5.09,5.09,0,0,0,2.29-.51l-.26,1.94a8.87,8.87,0,0,1-2.4.35c-2.91,0-4.57-1.72-4.57-4.2,0-3,2.1-5.12,5.49-5.12a8.6,8.6,0,0,1,3.18.48Z" transform="translate(-888.02 -518.62)"/><polygon class="cls-1" points="80.74 4.84 87.08 4.84 86.73 6.54 82.77 6.54 82.35 8.4 86.11 8.4 85.74 10.11 81.99 10.11 81.55 12.15 85.67 12.15 85.32 13.85 78.81 13.85 80.74 4.84"/><polygon class="cls-1" points="88.59 4.84 91.59 4.84 93.44 11.09 93.47 11.09 94.73 4.84 97 4.84 95.09 13.85 92.1 13.85 90.21 7.62 90.19 7.62 88.94 13.85 86.66 13.85 88.59 4.84"/><polygon class="cls-1" points="99.8 6.62 97.56 6.62 97.94 4.84 104.87 4.84 104.49 6.62 102.24 6.62 100.7 13.85 98.27 13.85 99.8 6.62"/><path class="cls-1" d="M995.41,527.21h.81c1,0,1.86-.26,1.86-1.11,0-.65-.39-.92-1.11-.93h-1.15Zm-1.59-3.75h2.88c1.72,0,3.78.07,3.78,2.3,0,1.59-1.24,2.14-2.62,2.31v0c.71.06.94,1,1.07,1.6l.65,2.77h-2.4l-.47-2.3c-.23-1.17-.31-1.26-1.39-1.26h-.26l-.72,3.56h-2.42Z" transform="translate(-888.02 -518.62)"/><path class="cls-1" d="M1006.16,525.09c-1.86,0-2.63,2.15-2.63,3.68,0,1.13.42,2.08,1.67,2.08,1.86,0,2.64-2.16,2.64-3.67,0-1.14-.43-2.09-1.68-2.09m-1.11,7.54c-2.93,0-4-1.82-4-3.67,0-3.42,1.79-5.65,5.26-5.65,2.93,0,4,1.82,4,3.68,0,3.4-1.8,5.64-5.27,5.64" transform="translate(-888.02 -518.62)"/><path class="cls-1" d="M1017.33,530.69h1.06a3.16,3.16,0,0,0,3.28-3.45c0-1.65-1.13-2-2.61-2h-.59Zm-.9-7.23h3.12c2.87,0,4.6,1.22,4.6,3.62,0,3.77-2.36,5.39-5.74,5.39h-3.89Z" transform="translate(-888.02 -518.62)"/><polygon class="cls-1" points="138.48 4.84 144.82 4.84 144.47 6.54 140.51 6.54 140.09 8.4 143.85 8.4 143.47 10.11 139.73 10.11 139.29 12.15 143.41 12.15 143.06 13.85 136.54 13.85 138.48 4.84"/><polygon class="cls-1" points="42.78 18.72 45.21 18.72 43.34 27.73 40.91 27.73 42.78 18.72"/><polygon class="cls-1" points="47.01 18.72 50.01 18.72 51.86 24.97 51.88 24.97 53.15 18.72 55.42 18.72 53.51 27.73 50.52 27.73 48.63 21.49 48.61 21.49 47.35 27.73 45.08 27.73 47.01 18.72"/><path class="cls-1" d="M948.79,539c-1.85,0-2.63,2.15-2.63,3.68,0,1.13.43,2.07,1.68,2.07,1.86,0,2.63-2.15,2.63-3.66,0-1.14-.42-2.09-1.68-2.09m-1.11,7.54c-2.93,0-4-1.82-4-3.67,0-3.42,1.8-5.65,5.27-5.65,2.93,0,4,1.82,4,3.67,0,3.41-1.79,5.65-5.27,5.65" transform="translate(-888.02 -518.62)"/><polygon class="cls-1" points="70.5 27.73 67.53 27.73 66.35 18.72 68.77 18.72 69.37 25.53 69.4 25.53 72.88 18.72 75.48 18.72 70.5 27.73"/><path class="cls-1" d="M967.65,539.2h0l-1.91,3.52H968Zm-1.2-1.86h3l1.47,9h-2.43l-.24-1.92h-3.5l-1.07,1.92h-2.61Z" transform="translate(-888.02 -518.62)"/><path class="cls-1" d="M979.47,546.16a8.27,8.27,0,0,1-2.23.33l-.56.67,0,0a1.52,1.52,0,0,1,.64-.08.94.94,0,0,1,1,1c0,.81-.89,1.09-1.61,1.09a3.63,3.63,0,0,1-1.69-.35l.28-.55a2.36,2.36,0,0,0,1,.3c.32,0,.69-.11.69-.38s-.21-.53-.46-.53a3.65,3.65,0,0,0-.46.07l-.48-.29.74-1a4,4,0,0,1-3.85-4.16c0-3,2.11-5.12,5.49-5.12a9,9,0,0,1,3.19.47l-.57,1.85a4.25,4.25,0,0,0-2.25-.54,3.17,3.17,0,0,0-3.38,3.41,2.19,2.19,0,0,0,2.47,2.34,5.07,5.07,0,0,0,2.28-.5Z" transform="translate(-888.02 -518.62)"/><path class="cls-1" d="M986.3,539.2h0l-1.91,3.52h2.33Zm3-4.35c-.12,1-.61,1.82-1.67,1.82-.67,0-1.41-.47-1.83-.47a.56.56,0,0,0-.63.51h-.93c.1-.91.6-1.82,1.64-1.82.68,0,1.38.46,1.84.46a.58.58,0,0,0,.65-.5Zm-4.17,2.49h3l1.47,9h-2.43l-.24-1.92h-3.5l-1.07,1.92h-2.61Z" transform="translate(-888.02 -518.62)"/><path class="cls-1" d="M996.13,539c-1.86,0-2.63,2.15-2.63,3.68,0,1.13.42,2.07,1.68,2.07,1.85,0,2.63-2.15,2.63-3.66,0-1.14-.43-2.09-1.68-2.09M995,546.51c-2.93,0-4-1.82-4-3.67,0-3.42,1.79-5.65,5.27-5.65,2.93,0,4,1.82,4,3.67,0,3.41-1.8,5.65-5.27,5.65" transform="translate(-888.02 -518.62)"/><path class="cls-1" d="M1011.82,539.38a4.47,4.47,0,0,0-2-.41c-1,0-1.73.14-1.73.86,0,1.28,3.5.8,3.5,3.54,0,2.49-2.32,3.14-4.41,3.14a9.86,9.86,0,0,1-2.78-.47l.56-1.83a4.73,4.73,0,0,0,2.22.51c.75,0,1.93-.14,1.93-1.07,0-1.44-3.5-.9-3.5-3.44,0-2.33,2-3,4-3a7.25,7.25,0,0,1,2.77.4Z" transform="translate(-888.02 -518.62)"/><polygon class="cls-1" points="126.3 18.72 132.63 18.72 132.29 20.42 128.32 20.42 127.91 22.28 131.67 22.28 131.29 23.98 127.55 23.98 127.11 26.02 131.23 26.02 130.88 27.73 124.36 27.73 126.3 18.72"/><path class="cls-1" d="M1027.6,539.38a4.56,4.56,0,0,0-2-.41c-1,0-1.73.14-1.73.86,0,1.28,3.5.8,3.5,3.54,0,2.49-2.31,3.14-4.4,3.14a9.87,9.87,0,0,1-2.79-.47l.56-1.83a4.74,4.74,0,0,0,2.23.51c.74,0,1.92-.14,1.92-1.07,0-1.44-3.5-.9-3.5-3.44,0-2.33,2-3,4-3a7.25,7.25,0,0,1,2.77.4Z" transform="translate(-888.02 -518.62)"/><polygon class="cls-1" points="142.11 18.72 144.53 18.72 142.66 27.73 140.24 27.73 142.11 18.72"/><path class="cls-1" d="M901,526.16h0a1.62,1.62,0,0,1,.41,2.25L892,542.19l0,0a14.54,14.54,0,0,0,.89,1.87l16.47-24a1.62,1.62,0,0,1,2.26-.42A1.64,1.64,0,0,1,912,522L894.88,546.9a14.08,14.08,0,0,0,1.3,1.26l10.55-15.36a1.63,1.63,0,0,1,2.68,1.84l-11.28,16.42a1.61,1.61,0,0,1-2,.56,3.86,3.86,0,0,1-.8-.48,18,18,0,0,1-6.07-21.09,18,18,0,0,1,7.92-9.12c.37-.21.76-.41,1.18-.61a17.78,17.78,0,0,1,6.62-1.69,1.43,1.43,0,1,1,.17,2.85,15.13,15.13,0,0,0-5.56,1.43q-.48.23-1,.51a15.28,15.28,0,0,0-5.05,4.62h0A15.07,15.07,0,0,0,891,538l7.83-11.41a1.63,1.63,0,0,1,2.26-.41" transform="translate(-888.02 -518.62)"/><path class="cls-1" d="M920.6,547.34a1.43,1.43,0,0,0-.37-2,1.48,1.48,0,0,0-2.07.45.41.41,0,0,0,0,.09,15.19,15.19,0,0,1-7.86,5.34l12.44-18.12a1.63,1.63,0,0,0-2.68-1.84l-14.07,20.5,0,.05a14.45,14.45,0,0,1-2.07-.17l12.21-17.78a1.62,1.62,0,0,0-2.68-1.83l-13.3,19.38a1.62,1.62,0,0,0,.21,2.09,2.06,2.06,0,0,0,1,.53,17.83,17.83,0,0,0,8.08.34,18,18,0,0,0,11.22-7h0" transform="translate(-888.02 -518.62)"/><path class="cls-1" d="M912.41,560.8H891.58v-1.2h20.16c3.68,0,6.34,0,8.75-3.9,3-5,5.29-5.11,9.07-5.31l.85,0H1031v1.2H930.44l-.81.05c-3.62.19-5.44.28-8.12,4.73C918.91,560.56,915.88,560.8,912.41,560.8Z" transform="translate(-888.02 -518.62)"/></svg>