<svg id="Camada_1" data-name="Camada 1" xmlns="http://www.w3.org/2000/svg" viewBox="0 0 39.25 51.93">
    <defs>
        <style>.cls-1{fill:#3651a3;}.cls-2{fill:#ff941f;}</style>
    </defs>
    <path class="cls-1" d="M979.64,564.11a5.61,5.61,0,0,0-3.28-3.77v-7.1a4.36,4.36,0,0,0-2.93-4.12l-6.9-2.41-.09-7a3.66,3.66,0,0,0-.62-1.82,4.94,4.94,0,0,0,2.68-1.73,6,6,0,0,0,1-4.18,1.1,1.1,0,0,1,0-.18v0a.14.14,0,0,0,0-.07,4.64,4.64,0,0,0-1.64-3.18,5.43,5.43,0,0,0-3.09-1.12l-.35-4.78a2.55,2.55,0,0,0-2.53-2.34,2.53,2.53,0,0,0-2.53,2.54l0,13c-2.72,2.67-1.47,7.12-1.32,7.61a15.66,15.66,0,0,1,.48,3.39,4.78,4.78,0,0,0-2.68,3.12,1.24,1.24,0,0,1-.5.67l-9.83,6.5a5.46,5.46,0,0,0-3.1,2.37,5.15,5.15,0,0,0-2.05,3.69,2.4,2.4,0,0,0,.41,1.47h0a1.56,1.56,0,0,0,1.69.64l.53-.14a9.42,9.42,0,0,0,2.05-.78l.52-.27c.5-.29,1.06-.65,1.68-1.06a47.45,47.45,0,0,1,5.7-2.78l0,0,5.49-2.68a10.4,10.4,0,0,0,4.19-3.67l.38-.58,6.86,1.8.69,4.68a4.87,4.87,0,0,1,.06.76V563a6.37,6.37,0,0,0,.12,1.16l.07.32a2,2,0,0,0,1.81,1.54h5.37a1.58,1.58,0,0,0,1.58-1.58ZM967,535.06a3.05,3.05,0,0,1-1.61,1l-.23-3.08,2.55-.16A3.72,3.72,0,0,1,967,535.06Zm-.31-5.07a2.54,2.54,0,0,1,.73,1l-2.39.15-.14-1.86A3.38,3.38,0,0,1,966.71,530Zm-5.29-7.63a.67.67,0,0,1,.48-.2.69.69,0,0,1,.68.63l.69,9.41h0l.34,4.68a1.17,1.17,0,0,1-.3.88,1.18,1.18,0,0,1-1.7.06,1.16,1.16,0,0,1-.36-.85l0-14.13A.67.67,0,0,1,961.42,522.36Zm-1.6,16.17a3.06,3.06,0,0,0,.51.63,3,3,0,0,0,2.09.85h.14a3,3,0,0,0,1.89-.76,1.88,1.88,0,0,1,.14.53l.08,6.67H960.4a19.27,19.27,0,0,0-.53-3.45l0-.06A7.91,7.91,0,0,1,959.82,538.53Zm-13.55,23a19.65,19.65,0,0,1-4,2.23,3.17,3.17,0,0,1,1.48-2.88,1.06,1.06,0,0,0,.27-.33,3.36,3.36,0,0,1,1.53-1.39l1.21,2.1C946.46,561.37,946.3,561.47,946.27,561.49Zm14.88-8.61a8.64,8.64,0,0,1-3.45,3l-5.47,2.66c-1.61.68-2.89,1.29-3.85,1.77l-1.2-2.07,9.21-6.1a3.07,3.07,0,0,0,1.26-1.68,2.93,2.93,0,0,1,2.45-2.19h4.07Zm11.31,6.65-.71-4.85a1.58,1.58,0,0,0-1.18-1.31l-6.41-1.69,2.05-3.12,6.61,2.31a2.52,2.52,0,0,1,1.69,2.37V560c-.77-.1-1.48-.13-2-.15C972.49,559.75,972.48,559.64,972.46,559.53Zm.29,4.58,0,0a4.53,4.53,0,0,1-.17-1.15v-1.22a14.33,14.33,0,0,1,3.25.42,3.9,3.9,0,0,1,1.92,2Z" transform="translate(-940.39 -514.03)"/>
    <path class="cls-2" d="M958.29,521.47a.93.93,0,0,0,.93-.93v-1.86h5.34v1.86a.93.93,0,1,0,1.85,0V515a.93.93,0,1,0-1.85,0v1.87h-5.34V515a.93.93,0,0,0-1.86,0v5.58A.93.93,0,0,0,958.29,521.47Z" transform="translate(-940.39 -514.03)"/>
    <path class="cls-2" d="M968.31,520.29a.93.93,0,0,0,.93-.93v-3.22a.93.93,0,0,0-1.86,0v3.22A.93.93,0,0,0,968.31,520.29Z" transform="translate(-940.39 -514.03)"/>
    <path class="cls-2" d="M955.46,520.29a.93.93,0,0,0,.93-.93v-3.22a.93.93,0,0,0-1.86,0v3.22A.93.93,0,0,0,955.46,520.29Z" transform="translate(-940.39 -514.03)"/>
</svg>