<svg id="Camada_1" data-name="Camada 1" xmlns="http://www.w3.org/2000/svg" viewBox="0 0 64.4 43.34">
    <defs>
        <style>.cls-1-saude{fill:#3651a3;}.cls-2-saude{fill:#ff941f;}</style>
    </defs>
    <path class="cls-1-saude" d="M965.32,527.64h8.07a.93.93,0,1,0,0-1.85h-7.15v-3.16c.24-.49,1.45-2.41,5.92-2.41,1.28,0,4.79.35,6.07,2.3v3.27H976a.93.93,0,1,0,0,1.85h1.67v2.3c0,2.75-.67,4.79-2,6.08a5.26,5.26,0,0,1-3.47,1.43,4.69,4.69,0,0,1-3.59-1.4c-2-2.13-1.86-6-1.86-6.06a.93.93,0,0,0-.88-1,.91.91,0,0,0-1,.88c0,.19-.22,4.7,2.36,7.42a6.52,6.52,0,0,0,4.91,2h.08a7,7,0,0,0,4.68-1.93c1.71-1.64,2.57-4.14,2.57-7.43v-2.39a.91.91,0,0,0,.54-.84v-4.45a1,1,0,0,0-.11-.45c-2-3.51-7.59-3.45-7.82-3.45-6.45,0-7.67,3.66-7.72,3.81a.9.9,0,0,0,0,.28v4.26A.93.93,0,0,0,965.32,527.64Z" transform="translate(-927.79 -518.36)"/>
    <path class="cls-1-saude" d="M992.18,557.22l-1-8a7.23,7.23,0,0,0-2.68-4.57,9.45,9.45,0,0,0-4.54-2l-5.26-.84a1,1,0,0,0-.44,0l-6,2-6-2a.93.93,0,0,0-.44,0l-5.25.84-.21,0c.07.5.12,1.71.11,1.87l1.78-.3v4.11a3,3,0,1,0,1.85,0v-4.41l1.79-.29,6.11,2a1,1,0,0,0,.59,0l6.1-2,1.12.18v3.5h-.28a1.52,1.52,0,0,0-1.34.81l-1.86,3.53,0,.07a2.37,2.37,0,0,0,2.09,3.49h.79a.93.93,0,0,0,0-1.86h-.79a.53.53,0,0,1-.45-.25.49.49,0,0,1,0-.51l1.81-3.43h2l1.77,3.37,0,.07a.5.5,0,0,1,0,.5.53.53,0,0,1-.45.25h-.79a.93.93,0,0,0,0,1.86H983a2.37,2.37,0,0,0,2.08-3.51l-1.89-3.58a1.5,1.5,0,0,0-1.34-.81h-.27v-3.2l2,.33a7.58,7.58,0,0,1,3.66,1.61,5.45,5.45,0,0,1,2,3.4l.85,7H955.79a7.81,7.81,0,0,1-1.78,1.86h37.25a.92.92,0,0,0,.69-.32A.9.9,0,0,0,992.18,557.22Zm-27.92-6.06a1.14,1.14,0,1,1-1.14-1.13A1.13,1.13,0,0,1,964.26,551.16Z" transform="translate(-927.79 -518.36)"/>
    <path class="cls-2-saude" d="M937.23,559.55H933a.93.93,0,0,1-.93-.92v-3.32h-3.35a.93.93,0,0,1-.93-.93v-4.25a.92.92,0,0,1,.93-.92h3.35v-3.27A.93.93,0,0,1,933,545h4.23a.91.91,0,0,1,.66.28.93.93,0,0,1,.27.65v3.27h3.24a.92.92,0,0,1,.92.92v4.24a.93.93,0,0,1-.92.93h-3.24v3.33A.92.92,0,0,1,937.23,559.55Zm-3.3-1.85h2.37v-3.33a.92.92,0,0,1,.93-.92h3.23v-2.39h-3.23a.94.94,0,0,1-.66-.27,1,1,0,0,1-.27-.66v-3.26h-2.37v3.26a.93.93,0,0,1-.93.93h-3.36v2.39H933a.93.93,0,0,1,.93.93Z" transform="translate(-927.79 -518.36)"/>
    <path class="cls-2-saude" d="M942.78,561.7a1,1,0,0,1-.46-.1,23,23,0,0,1-3-1.73,1.11,1.11,0,0,1,1.23-1.85,24.51,24.51,0,0,0,2.25,1.33c10.17-4.73,11.29-13.12,11.38-15.61,0-.11,0-.33,0-.33a5.15,5.15,0,0,0-10.3,0,1.12,1.12,0,0,1-2.23,0,5.15,5.15,0,0,0-9.88-2,1.13,1.13,0,0,1-1.47.58,1.12,1.12,0,0,1-.58-1.46,7.37,7.37,0,0,1,13-1,7.38,7.38,0,0,1,13.65,3.86s0,.3,0,.43c-.11,2.83-1.39,12.55-13.18,17.76A1.17,1.17,0,0,1,942.78,561.7Z" transform="translate(-927.79 -518.36)"/>
</svg>